<svg version="1.2" xmlns="http://www.w3.org/2000/svg" viewBox="0 0 1280 1244" width="1280" height="1244">
	<title>A2DE7333-C84D-4463-9D31-CA55FF552763</title>
	<style>
		.s0 { fill: #000000 } 
		.s1 { fill: #ffffff } 
	</style>
	<g id="free_musick_logo_black copy">
		<path id="Path 1" class="s0" d="m515.7 364.8c-6.8 10.3-21.3 32.2-32.2 48.7-10.9 16.5-27.7 41.9-37.3 56.5-9.6 14.6-23.6 35.7-31 47-7.4 11.3-20.5 31.1-29 44-8.5 12.9-21.9 33.2-29.7 45-7.8 11.8-21.8 33-31 47-9.3 14-25.9 39.2-37 56-11.1 16.8-26.4 40-34 51.5-7.6 11.5-22.1 33.5-32.2 48.7-10 15.3-18.3 28.5-18.3 29.3 0 1.3 49.7 1.5 441 1.5 293 0 441.2-0.3 441.5-1 0.3-0.5-6.4-11.5-14.8-24.3-8.5-12.7-21.5-32.4-28.9-43.7-7.4-11.3-21.8-33.1-32-48.5-10.1-15.4-26.5-40.1-36.3-55-9.8-14.9-23.5-35.5-30.3-46-6.9-10.5-20.2-30.7-29.7-45-9.4-14.3-23.3-35.2-30.7-46.5-7.4-11.3-21.8-33.1-32-48.5-10.1-15.4-24.1-36.6-31-47-6.9-10.5-22.2-33.6-34-51.5-11.8-17.9-22-33.5-22.6-34.8l-1.2-2.2h-235z"/>
		<path id="Path 2" class="s1" d="m534.7 366.8c-1.3 2-10 15.2-19.2 29.2-9.2 14-24.1 36.5-33 50-8.9 13.5-21.4 32.4-27.7 42-6.3 9.6-20.9 31.7-32.3 49-11.5 17.3-28.7 43.4-38.3 58-9.7 14.6-23.7 35.7-31.1 47-7.5 11.3-13.8 21-14.1 21.5-0.3 0.5-5 7.7-10.4 16-5.5 8.2-20.4 30.7-33.1 50-12.7 19.2-29.4 44.5-37 56-7.6 11.5-16 24.3-18.6 28.2-2.7 4-4.7 7.8-4.4 8.3 0.3 0.7 138 1 410 1 389.5 0 409.5-0.1 409.2-1.8-0.2-0.9-7.9-13.2-17.2-27.2-9.3-14-21.9-33.1-28-42.5-6.2-9.4-18.4-28-27.3-41.5-8.9-13.5-17.1-25.9-18.3-27.5-1.1-1.6-9.2-13.8-17.8-27-8.7-13.2-23.4-35.5-32.6-49.5-9.3-14-23.2-35.2-31-47-7.8-11.8-22.6-34.3-33-50-10.3-15.7-26.1-39.5-35-53-8.9-13.5-26-39.4-38-57.5-12-18.1-21.9-33.6-22.1-34.3-0.3-0.9-23-1.2-108.9-1.2h-108.5z"/>
		<path id="Path 3" class="s0" d="m721.5 447c-3.9 1-8.8 2.4-11 3.2-2.2 0.9-6.9 3-10.5 4.8-4 2-8.9 5.7-12.8 9.6l-6.2 6.4c-5-8-8.5-12.1-11-14.2-2.5-2.2-6.7-5-9.5-6.3-2.7-1.3-7.7-2.8-11-3.4-3.3-0.6-8.5-1.1-11.5-1.1-3 0-8.4 0.5-12 1.1-3.6 0.6-9.2 2.3-12.5 3.8-3.3 1.5-8.3 4.7-11 7.3-2.7 2.5-6.5 7.4-8.4 10.9l-3.4 6.4c-2.4-3.9-5.9-7.8-9.4-11.3-3.7-3.6-8.7-7.3-12-8.9-4.7-2.2-7.6-2.8-15.3-3.1-7-0.3-11.1 0-15.5 1.2-3.3 1-9.6 3.5-14 5.6-4.5 2.1-11.3 6.6-15.5 10.2-4.1 3.5-10.5 10.4-14.2 15.3-3.8 5-9.2 13.7-12.2 19.5-2.9 5.8-6.5 13.6-7.9 17.5-1.4 3.9-3.7 11.5-5.1 17-1.5 5.5-3.5 15.2-4.6 21.5-1 6.3-2.4 18.9-3.1 28-1 13-1 19.9 0 32.5 0.6 8.8 2.1 21.4 3.1 28 1.1 6.6 3.1 16.3 4.4 21.5 1.3 5.2 3.6 13.1 5.1 17.5 1.5 4.4 5.3 13.4 8.4 20 3.2 6.6 7.8 15.1 10.3 19 2.4 3.9 7.8 11 12 16 4.1 5 10.3 11.5 13.8 14.5 3.4 3 8.3 7 10.9 8.9 2.5 1.8 9.1 5.5 14.6 8.2 5.5 2.6 12.7 5.5 16 6.3 3.3 0.9 9.6 2 14 2.5 5.4 0.7 11.6 0.6 19-0.1 6-0.6 15.3-2.1 20.5-3.4 5.3-1.3 13.7-4.5 19-7.1 7.6-3.9 11.3-6.6 18.9-13.8 5.1-5 11.5-11.9 14.1-15.5 2.6-3.6 5.9-8.7 7.3-11.5 1.3-2.7 3.2-7.5 4.1-10.5 0.9-3 1.6-8.3 1.6-11.7 0-3.5-0.5-7.2-1-8.3-0.5-1.1-1.8-2-2.7-2-1 0-2.8 1-3.9 2.2-1.2 1.3-4.3 6.6-6.9 11.8-2.6 5.2-6.6 12.2-9 15.5-2.4 3.3-6.3 8-8.7 10.4-2.3 2.4-6.3 5.7-8.8 7.4-2.5 1.7-7.3 4.4-10.7 5.9-3.5 1.5-9.8 3.8-14 5-6.1 1.7-10.5 2.2-20.3 2.2-11.6 0.1-13-0.1-20-2.9-4.1-1.7-10.6-5.1-14.5-7.7-3.9-2.5-10.5-8.3-14.9-12.9-4.3-4.6-10.2-12-13.1-16.4-2.9-4.4-6.7-10.7-8.4-14-1.8-3.3-4.9-10.3-7-15.5-2.1-5.2-5-14-6.4-19.5-1.4-5.5-3.1-13.8-3.9-18.5q-1.3-8.5-1.3-36c0.1-15.1 0.7-33.8 1.4-41.5 0.7-7.7 2.1-19.6 3.1-26.5 1.1-6.9 3.1-17 4.5-22.5 1.5-5.5 3.9-13.1 5.5-17 1.6-3.9 4.7-9.7 6.8-13 2.2-3.3 5-7 6.3-8.2 1.3-1.2 4.1-2.9 6.2-3.7 2-0.9 4.9-1.6 6.5-1.6 1.5 0 5 1.1 7.7 2.4 2.8 1.2 6.8 4.3 8.9 6.7 2.2 2.4 5 6.6 6.2 9.4 1.3 2.7 3.1 7.7 4.1 11 1.4 5.1 1.7 11.3 2 40.5 0.2 19 0.5 35.5 0.8 36.8 0.3 1.2 2 3 3.8 3.9 2.2 1.1 5.7 1.7 11.2 1.7 4.4 0.1 9.6-0.2 11.5-0.6 1.9-0.4 4.7-1.9 6.3-3.3l2.7-2.5c0-55.9 0.4-68.3 1.4-75 0.8-5.2 2.4-12 3.5-15 1.1-3 3.5-7.3 5.3-9.4 1.8-2.1 5-4.7 7.1-5.7 2-1.1 5.4-2.2 7.5-2.5 2-0.3 5.7-0.1 8.2 0.6 3.1 0.8 5.9 2.6 9 5.8 3 3.1 5.3 6.8 6.7 10.7 1.2 3.3 2.7 8.7 3.4 12 1 4.2 1.3 16.5 1.4 41.6 0 34.3 0.1 35.8 2 37.8 1.1 1.2 4.3 2.6 7 3.2 2.8 0.7 8.1 0.9 12 0.6 3.9-0.2 8.7-1.2 10.8-2.1 2-0.9 4.1-2.6 4.6-3.8 0.6-1.3 1.4-18.7 2-38.8 0.8-30.7 1.3-37.6 2.9-43.5 1.1-3.9 2.6-8.6 3.4-10.5 0.9-1.9 3-5.4 4.7-7.8 2-2.7 5-5.1 8.4-6.7 3.6-1.7 6.9-2.5 10.7-2.5 3.7 0 6.9 0.8 9.9 2.3 2.5 1.2 5.6 3.9 7.2 6.2 1.5 2.2 3.7 7.1 5 11l2.4 7c0 184.4-0.5 237.7-1.1 249.5-0.6 10.7-0.7 20.6-0.3 22 0.5 1.4 2.5 3.4 4.6 4.5 3.1 1.6 6.4 2 17.8 2.3 7.9 0.2 15.7-0.1 18-0.6 2.2-0.6 5.3-2.1 6.9-3.4l2.9-2.3c-1.1-27.1-1.8-38.4-2.4-42.5-0.5-4.2-1.2-56.5-1.4-119-0.5-93.5-0.8-112.8-2.1-119.5-0.9-5-3.1-11.3-5.9-17-3.4-7-5.9-10.4-11.2-15.6-3.7-3.6-9-7.9-11.8-9.4-2.7-1.6-8-4-11.7-5.2-5.6-1.9-8.8-2.3-18-2.2-7.2 0.1-13.9 0.8-18.3 1.9z"/>
	</g>
</svg>